<svg xmlns="http://www.w3.org/2000/svg" width="199" height="198" viewBox="0 0 199 198">
    <path fill="#0070C0" fill-rule="evenodd" d="M99.5 198c-54.676 0-99-44.324-99-99s44.324-99 99-99 99 44.324 99 99-44.324 99-99 99zm30-133.651c-.65-1.204-1.255-2.409-1.935-3.57-2.399-4.095-4.82-8.177-7.246-12.255-.128-.215-.385-.352-.582-.524-.132.205-.324.393-.387.618a83.47 83.47 0 0 0-.827 3.154c-.684 2.846-1.305 5.707-2.042 8.54-.857 3.297-1.834 6.562-2.71 9.855-.483 1.812-.811 3.664-1.302 5.473-1.107 4.077-2.288 8.133-3.408 12.206-1.036 3.77-2.029 7.551-3.056 11.323-.072.265-.27.496-.409.742-.233-.19-.505-.347-.692-.575-1.21-1.48-2.384-2.988-3.602-4.463-1.622-1.966-3.294-3.893-4.907-5.866-2.042-2.496-4.05-5.02-6.066-7.537-.479-.598-.667-.707-.926.207-1.203 4.247-2.537 8.46-3.74 12.707-.944 3.335-1.714 6.72-2.655 10.057-1.173 4.16-2.46 8.29-3.664 12.442-.863 2.982-1.64 5.989-2.51 8.97-.902 3.1-1.892 6.174-2.802 9.273a2429.614 2429.614 0 0 0-4.51 15.597c-.066.234.033.517.054.777.115-.172.249-.334.344-.516 2.226-4.282 4.447-8.568 6.673-12.85 2.144-4.122 4.322-8.228 6.436-12.365 3.006-5.883 5.967-11.79 8.945-17.686.627-1.24 1.312-1.187 2.19-.195 2.054 2.322 4.167 4.595 6.24 6.9 3.387 3.764 6.75 7.549 10.153 11.297.444.489 1.053 1.112 1.417-.187 1.267-4.537 2.59-9.059 3.868-13.593.63-2.235 1.179-4.493 1.816-6.725.949-3.322 1.963-6.625 2.911-9.946.676-2.37 1.261-4.767 1.938-7.137.833-2.916 1.733-5.814 2.577-8.727.51-1.76.95-3.54 1.456-5.299.957-3.323 1.94-6.639 2.96-10.122z"/>
</svg>
