<svg xmlns="http://www.w3.org/2000/svg" width="59" height="59" viewBox="0 0 59 59">
    <path fill="#A4A4A4" fill-rule="evenodd" d="M29.25 59C13.096 59 0 45.904 0 29.75S13.096.5 29.25.5 58.5 13.596 58.5 29.75 45.404 59 29.25 59zm8.864-39.488c-.192-.355-.371-.711-.572-1.054a614.214 614.214 0 0 0-2.141-3.621c-.038-.064-.114-.104-.172-.155-.039.06-.096.116-.114.182-.088.31-.17.62-.245.932-.202.841-.385 1.687-.603 2.523-.253.974-.542 1.94-.8 2.912-.143.535-.24 1.083-.385 1.617-.327 1.205-.676 2.403-1.007 3.607-.306 1.113-.6 2.23-.903 3.345-.021.078-.08.146-.12.219-.07-.056-.15-.102-.205-.17-.358-.437-.705-.883-1.064-1.318-.48-.581-.974-1.15-1.45-1.733-.604-.738-1.197-1.483-1.793-2.227-.141-.177-.197-.21-.273.06-.356 1.256-.75 2.5-1.105 3.755-.279.986-.506 1.986-.785 2.972-.346 1.229-.727 2.449-1.082 3.676-.255.88-.485 1.77-.741 2.65-.267.916-.56 1.824-.829 2.74-.45 1.534-.892 3.07-1.332 4.608-.02.069.01.152.016.23.034-.051.073-.1.101-.153l1.972-3.797c.634-1.218 1.277-2.43 1.902-3.653.888-1.738 1.762-3.483 2.643-5.225.185-.367.387-.351.646-.058.607.686 1.232 1.358 1.844 2.039 1 1.112 1.994 2.23 3 3.337.131.145.311.329.418-.055.375-1.34.766-2.676 1.143-4.016.186-.66.349-1.327.537-1.987.28-.981.58-1.957.86-2.939.2-.7.373-1.408.573-2.108.246-.862.511-1.718.76-2.579.151-.52.281-1.045.431-1.565.283-.982.573-1.962.875-2.99z"/>
</svg>
